<svg width="408" height="457" xmlns="http://www.w3.org/2000/svg" xmlns:xlink="http://www.w3.org/1999/xlink" xml:space="preserve" overflow="hidden"><defs><clipPath id="clip0"><rect x="716" y="192" width="408" height="457"/></clipPath><clipPath id="clip1"><rect x="716" y="192" width="408" height="457"/></clipPath></defs><g clip-path="url(#clip0)" transform="translate(-716 -192)"><g clip-path="url(#clip1)"><path d="M118.713 456.679C118.499 456.5 92.4354 448.074 60.731 437.935 29.0266 427.795 3.03477 419.44 2.89195 419.333 2.78484 419.226 2.89195 418.833 3.10617 418.512 3.32039 418.191 32.6684 376.704 68.3358 326.327 104.003 275.949 133.137 234.534 133.066 234.32 132.994 233.855 1.28531 47.7708 0.464141 46.9496 0.142813 46.6283 0 45.4501 0 43.1294L0 39.809 52.4122 20.565C81.2246 9.96117 105.431 0.999688 106.181 0.642656 107.074 0.249922 108.395 0 109.751 0L111.929 0 157.594 67.5146C189.227 114.286 203.436 134.958 203.793 134.886 204.258 134.779 290.231 3.24898 291.409 0.821172 291.766 0.0714063 292.087 0 294.265 0 295.693 0 297.05 0.214219 297.514 0.499844 297.943 0.749766 322.935 9.71125 353.033 20.3865L407.73 39.7733 407.73 43.2365C407.73 45.1645 407.587 46.7711 407.408 46.8425 407.158 46.9139 277.27 229.25 274.664 233.213L273.772 234.534 338.073 326.719C373.455 377.453 402.267 419.048 402.124 419.19 401.946 419.333 377.489 427.723 347.713 437.827 317.936 447.931 293.23 456.393 292.837 456.607 292.444 456.822 291.088 457 289.838 456.964L287.589 456.964 258.848 413.585C210.613 340.751 204.4 331.504 203.972 331.504 203.722 331.504 194.546 345.642 183.585 362.922 172.625 380.203 154.773 408.301 143.955 425.367 133.101 442.397 124.247 456.5 124.247 456.679 124.247 457.107 119.141 457.107 118.713 456.679Z" fill="#000000" fill-rule="nonzero" fill-opacity="1" transform="matrix(1.00064 0 0 -1 716.005 649)"/></g></g></svg>